<svg width="151" height="45" viewBox="0 0 151 45" fill="none" xmlns="http://www.w3.org/2000/svg">
<path fill-rule="evenodd" clip-rule="evenodd" d="M111.945 23.8435C110.117 23.8435 108.841 22.3479 108.841 20.2621C108.841 18.1857 110.117 16.6807 111.945 16.6807C113.787 16.6807 115.024 18.0873 115.024 20.4286C115.024 22.77 113.787 23.8435 111.945 23.8435ZM106.277 33.0345C107.76 33.6523 109.713 34.0863 111.509 34.0863C114.317 34.0863 116.144 33.3458 117.475 31.8795C118.587 30.6546 119.151 28.9514 119.151 26.8171V13.2053H115.023V15.0166C114.182 13.9849 112.814 13.031 110.849 13.031C108.625 13.031 104.502 14.7168 104.502 20.3767C104.502 26.0338 108.607 27.5239 110.956 27.5239C112.657 27.5239 114.068 26.9978 115.079 25.825L115.08 26.6157C115.08 28.6346 113.827 30.0788 111.665 30.0788C109.424 30.0788 107.433 29.2572 107.433 29.2572L106.277 33.0345Z" fill="#250D53"/>
<path fill-rule="evenodd" clip-rule="evenodd" d="M60.3027 28.1687H73.7296V24.0435H65.0357V9.64282H60.3027V28.1687Z" fill="#250D53"/>
<path fill-rule="evenodd" clip-rule="evenodd" d="M134.528 13.2051H130.406L130.401 22.3281C130.319 23.5941 129.102 24.4553 127.831 24.4553C126.348 24.4553 125.255 23.5997 125.255 22.1122V13.2051H121.133V22.1731C121.133 25.7894 122.939 28.481 126.686 28.481C128.151 28.481 129.382 27.8554 130.401 26.8479V28.1681H134.528V13.2051Z" fill="#250D53"/>
<mask id="mask0_3_2822" style="mask-type:alpha" maskUnits="userSpaceOnUse" x="136" y="12" width="15" height="17">
<path fill-rule="evenodd" clip-rule="evenodd" d="M136.016 12.9531H150.679V28.4181H136.016V12.9531Z" fill="white"/>
</mask>
<g mask="url(#mask0_3_2822)">
<path fill-rule="evenodd" clip-rule="evenodd" d="M140.252 18.8822C140.657 17.3824 141.754 16.5605 143.362 16.5605C144.899 16.5605 145.94 17.4236 146.183 18.8822H140.252ZM143.475 12.9531C139.083 12.9531 136.016 16.1328 136.016 20.6856C136.016 25.3107 139.435 28.4181 144.101 28.4181C146.588 28.4181 148.381 27.8352 149.634 27.2013L148.279 23.8208C147.062 24.2966 145.869 24.4655 144.361 24.4655C142.25 24.4655 140.656 23.2384 140.299 22.0287H150.679V20.8008C150.679 15.9319 147.765 12.9531 143.475 12.9531Z" fill="#250D53"/>
</g>
<path fill-rule="evenodd" clip-rule="evenodd" d="M98.9103 21.7773V22.1364C98.9103 23.7171 97.5877 24.9091 95.8337 24.9091C94.6727 24.9091 94.0068 24.423 94.0068 23.5755C94.0068 22.83 94.5745 22.3354 95.6008 22.183L98.9103 21.7773ZM96.3813 12.9937C92.9042 12.9937 90.4849 14.0751 90.4849 14.0751L91.584 17.7367C91.584 17.7367 93.7592 16.8776 96.3813 16.8776C97.8098 16.8776 98.9099 17.4028 98.9099 18.3426V18.6615L98.3443 18.7218L94.8277 19.0341C91.6246 19.3806 89.7373 21.2 89.7373 23.7771C89.7373 26.5335 91.7887 28.4587 94.7259 28.4587C96.4377 28.4587 97.9309 27.7897 98.9099 26.6039V28.1459H103.037V19.0857C103.037 15.0251 100.694 12.9937 96.3813 12.9937Z" fill="#250D53"/>
<path fill-rule="evenodd" clip-rule="evenodd" d="M78.5781 18.8822C78.9834 17.3824 80.0796 16.5605 81.6879 16.5605C83.2252 16.5605 84.266 17.4236 84.509 18.8822H78.5781ZM81.8011 12.9531C77.4093 12.9531 74.3418 16.1328 74.3418 20.6856C74.3418 25.3107 77.7616 28.4181 82.4271 28.4181C84.914 28.4181 86.7069 27.8352 87.9603 27.2013L86.6049 23.8208C85.3878 24.2966 84.1955 24.4655 82.6874 24.4655C80.5761 24.4655 78.9821 23.2384 78.6249 22.0287H89.0049V20.8008C89.0049 15.9319 86.0912 12.9531 81.8011 12.9531Z" fill="#250D53"/>
<path fill-rule="evenodd" clip-rule="evenodd" d="M16.0635 0V28.125H44.1752V16.0714H28.1113V0H16.0635Z" fill="#501CD2"/>
<path fill-rule="evenodd" clip-rule="evenodd" d="M0 28.1251H12.0479V16.0715H0V28.1251Z" fill="#01C3A2"/>
<path fill-rule="evenodd" clip-rule="evenodd" d="M16.0635 44.1964H28.1113V32.1428H16.0635V44.1964Z" fill="#01C3A2"/>
</svg>
